<svg width="24" height="25" viewBox="0 0 24 25" fill="none" xmlns="http://www.w3.org/2000/svg">
<path d="M1.25 12.6287C1.25 18.5657 6.06294 23.3787 12 23.3787C17.9371 23.3787 22.75 18.5657 22.75 12.6287C22.75 6.6916 17.9371 1.87866 12 1.87866C6.06294 1.87866 1.25 6.6916 1.25 12.6287Z" fill="#FFF0C6"/>
<path d="M16.8775 8.64904C17.1425 9.1336 16.9645 9.74123 16.48 10.0062C15.1086 10.7562 13.8208 12.3262 12.8374 13.8319C12.3581 14.5659 11.9735 15.2493 11.709 15.749C11.577 15.9984 11.4756 16.2007 11.4079 16.3392L11.3096 16.5446C11.1551 16.8823 10.8261 17.1069 10.4553 17.1273C10.0844 17.1478 9.73267 16.961 9.54198 16.6422C9.23126 16.1227 8.73753 15.6485 8.27997 15.2867C8.05764 15.111 7.85752 14.9724 7.71471 14.8788L7.50442 14.7473C7.02493 14.4736 6.85797 13.8631 7.13152 13.3834C7.40513 12.9037 8.01585 12.7366 8.49559 13.0102L8.81063 13.2058C8.99282 13.3252 9.2427 13.4983 9.52038 13.7179C9.73258 13.8856 9.96984 14.0874 10.2094 14.3198C10.4662 13.8584 10.7872 13.3137 11.1629 12.7383C12.1796 11.1815 13.6917 9.25152 15.5204 8.25148C16.0049 7.98649 16.6125 8.16448 16.8775 8.64904Z" fill="#DD6602"/>
</svg>
